<?xml version="1.0" encoding="UTF-8"?>
<svg width="26px" height="26px" viewBox="0 0 26 26" version="1.1" xmlns="http://www.w3.org/2000/svg" xmlns:xlink="http://www.w3.org/1999/xlink">
    <!-- Generator: Sketch 46.2 (44496) - http://www.bohemiancoding.com/sketch -->
    <title>instagram (1)</title>
    <desc>Created with Sketch.</desc>
    <defs></defs>
    <g id="Page-1" stroke="none" stroke-width="1" fill="none" fill-rule="evenodd">
        <g id="instagram-(1)" fill-rule="nonzero">
            <path d="M16.8292222,6.89866667 L9.10086667,6.89866667 C7.86731111,6.89866667 6.86371111,7.90226667 6.86371111,9.13582222 L6.86371111,16.8641778 C6.86371111,18.0977333 7.86731111,19.1016222 9.10086667,19.1016222 L16.8292222,19.1016222 C18.0627778,19.1016222 19.0666667,18.0980222 19.0666667,16.8641778 L19.0666667,9.13582222 C19.0666667,7.90226667 18.0630667,6.89866667 16.8292222,6.89866667 Z M12.9650444,17.0172889 C10.7501333,17.0172889 8.94804444,15.2152 8.94804444,13 C8.94804444,10.7850889 10.7501333,8.983 12.9650444,8.983 C15.1802444,8.983 16.9823333,10.7850889 16.9823333,13 C16.9823333,15.2149111 15.1799556,17.0172889 12.9650444,17.0172889 Z M17.1114667,9.81355556 C16.5871333,9.81355556 16.1607333,9.38715556 16.1607333,8.86311111 C16.1607333,8.33906667 16.5871333,7.91266667 17.1114667,7.91266667 C17.6355111,7.91266667 18.0619111,8.33906667 18.0619111,8.86311111 C18.0619111,9.38715556 17.6355111,9.81355556 17.1114667,9.81355556 Z" id="Shape" fill="#FFC80A"></path>
            <path d="M12.9650444,10.6805111 C11.6864222,10.6805111 10.6452667,11.7210889 10.6452667,12.9997111 C10.6452667,14.2789111 11.6864222,15.3197778 12.9650444,15.3197778 C14.2442444,15.3197778 15.2845333,14.2789111 15.2845333,12.9997111 C15.2845333,11.7213778 14.2439556,10.6805111 12.9650444,10.6805111 Z" id="Shape" fill="#FFC80A"></path>
            <path d="M12.9650444,0 C5.80493333,0 0,5.80493333 0,12.9650444 C0,20.1251556 5.80493333,25.9300889 12.9650444,25.9300889 C20.1251556,25.9300889 25.9300889,20.1251556 25.9300889,12.9650444 C25.9300889,5.80493333 20.1251556,0 12.9650444,0 Z M20.7638889,16.8641778 C20.7638889,19.0340222 18.9990667,20.7988444 16.8292222,20.7988444 L9.10086667,20.7988444 C6.93131111,20.7988444 5.1662,19.0340222 5.1662,16.8641778 L5.1662,9.13582222 C5.1662,6.96626667 6.93131111,5.20115556 9.10086667,5.20115556 L16.8292222,5.20115556 C18.9990667,5.20115556 20.7638889,6.96626667 20.7638889,9.13582222 L20.7638889,16.8641778 Z" id="Shape" fill="#FFFFFF"></path>
        </g>
    </g>
</svg>