<?xml version="1.0" encoding="UTF-8"?>
<svg width="26px" height="26px" viewBox="0 0 26 26" version="1.1" xmlns="http://www.w3.org/2000/svg" xmlns:xlink="http://www.w3.org/1999/xlink">
    <!-- Generator: Sketch 46.2 (44496) - http://www.bohemiancoding.com/sketch -->
    <title>twitter</title>
    <desc>Created with Sketch.</desc>
    <defs></defs>
    <g id="Page-1" stroke="none" stroke-width="1" fill="none" fill-rule="evenodd">
        <g id="twitter" fill-rule="nonzero">
            <circle id="Oval" fill="#FFFFFF" cx="12.9077345" cy="12.9075044" r="12.9075044"></circle>
            <path d="M20.8140354,9.27624779 C20.2609027,9.52152212 19.6658938,9.68741593 19.0418938,9.76150442 C19.6790088,9.37978761 20.1679469,8.77580531 20.3987257,8.05493805 C19.8025664,8.40858407 19.1419823,8.66513274 18.4395221,8.80341593 C17.8767257,8.2040354 17.0748673,7.82945133 16.1869558,7.82945133 C14.4833805,7.82945133 13.1016991,9.21113274 13.1016991,10.914708 C13.1016991,11.156531 13.1290796,11.3919115 13.182,11.6178584 C10.6178938,11.4892389 8.34438938,10.2610265 6.82258407,8.39385841 C6.55706195,8.84943363 6.40474336,9.37978761 6.40474336,9.94511504 C6.40474336,11.0152566 6.94982301,11.96 7.77722124,12.5131327 C7.27171681,12.4972566 6.79566372,12.3585133 6.37989381,12.1268142 C6.37966372,12.1399292 6.37966372,12.1530442 6.37966372,12.1659292 C6.37966372,13.6608142 7.44359292,14.9076637 8.85472566,15.1909027 C8.59610619,15.2617699 8.32299115,15.2992743 8.0420531,15.2992743 C7.84279646,15.2992743 7.64975221,15.280177 7.46153982,15.2442832 C7.8540708,16.4697345 8.99323894,17.3617876 10.3436283,17.3868673 C9.28752212,18.2144956 7.95738053,18.7075752 6.51150442,18.7075752 C6.26300885,18.7075752 6.01681416,18.6930796 5.7759115,18.6643186 C7.14056637,19.5400354 8.76269027,20.0506018 10.5049204,20.0506018 C16.179823,20.0506018 19.2832566,15.3494336 19.2832566,11.2720354 C19.2832566,11.138354 19.2802655,11.0051327 19.2742832,10.8730619 C19.8775752,10.4381947 20.4005664,9.89495575 20.8140354,9.27624779 L20.8140354,9.27624779 Z" id="Shape" fill="#FFC80A"></path>
        </g>
    </g>
</svg>